<?xml version="1.0" encoding="utf-8"?>
<!-- Generator: Adobe Illustrator 21.1.0, SVG Export Plug-In . SVG Version: 6.00 Build 0)  -->
<svg version="1.1" id="Capa_1" xmlns="http://www.w3.org/2000/svg" xmlns:xlink="http://www.w3.org/1999/xlink" x="0px" y="0px"
	 viewBox="0 0 548.5 556.4" style="enable-background:new 0 0 548.5 556.4;" xml:space="preserve">
<style type="text/css">
	.st0{fill:#FFFFFF;}
</style>
<path class="st0" d="M527.4,508.3L387.8,363.1c36.8-39,57-89.6,57-143.3c0-115.2-93.8-209-209-209s-209,93.8-209,209
	c0,115.2,93.8,209,209,209c46.6,0,92.2-15.8,128.9-44.6L504.8,530c3,3.1,7,4.8,11.3,4.8c4.1,0,7.9-1.6,10.9-4.4
	C533.2,524.5,533.4,514.5,527.4,508.3z M413.5,219.8c0,98-79.7,177.7-177.7,177.7c-98,0-177.7-79.7-177.7-177.7
	S137.8,42.1,235.8,42.1C333.8,42.1,413.5,121.8,413.5,219.8z"/>
</svg>
