<?xml version="1.0" encoding="utf-8"?>
<!-- Generator: Adobe Illustrator 21.1.0, SVG Export Plug-In . SVG Version: 6.00 Build 0)  -->
<svg version="1.1" id="Layer_1" xmlns="http://www.w3.org/2000/svg" xmlns:xlink="http://www.w3.org/1999/xlink" x="0px" y="0px"
	 viewBox="0 0 802.2 957.4" style="enable-background:new 0 0 802.2 957.4;" xml:space="preserve">
<style type="text/css">
	.st0{fill:#FFFFFF;}
</style>
<path class="st0" d="M745.4,343.7L745.4,343.7c-2.5-5.8-7.7-9.2-13.8-9.2h-75.8c-7.4,0-13.3-6-13.3-13.3v-88.8h-0.2v-9.6
	c0-21.6-8.8-42.7-24.1-58l-95.1-95.7c-9.3-9.4-21.7-14.6-35.1-14.6H187.6c-23.4,0-30.9,6.3-34.5,10.9c-5.4,6.8-6.5,16.5-6.5,30
	v225.1c0,7.4-6,13.3-13.3,13.3H52.7c-6.1,0-11.2,3.4-13.6,9.1c-2.5,5.6-1.3,11.6,3.2,16.1l78.8,78.9c9.2,9.1,21.3,14,34.2,14H347
	c7.5,0,13.6,6.1,13.6,13.6l-0.3,165.8c0,7.4-6,13.3-13.3,13.3h-60.3C270,644.3,257,631.3,257,615l-0.7-112.7c0-6-5-11-11-11h-84.4
	c-12.1,0-14.4,5.1-14.4,14.5v235.9c0,8.9,9.7,22.6,22.6,22.6h177.6c7.4,0,13.4,6,13.3,13.4l-0.2,126.9c0,9.3,8,14.8,15.7,14.8
	c4,0,7.6-1.5,10.6-4.3l81-78.8c9.4-9.3,14.6-21.4,14.6-34.1l-0.2-440c0.1-7.5-2.8-14.6-8.1-20.1l-0.1-0.1
	c-5.4-5.3-12.6-8.2-20.1-8.2H268c-7.4,0-13.3-5.9-13.3-13.3l-0.4-104c0-15.8,0-27.2,7.1-34.7c6.8-7.2,16.8-7.2,32-7.2h130.2
	c17.5,0,34.3,6.5,47.4,18.3l28.2,25.6c14.7,13.3,23.1,32.2,23.1,51.9l0.1,476.9v2.1l0.6,0.6c1.4,3.9,5,6.7,9.2,7.1l1.3,0
	c5,0,9.8-2.2,13.9-6.4l78.9-78.8c10.2-10.2,16.1-22.7,16.1-34.2V468.3c0-0.1,0-0.2,0-0.5c-0.4-9.6,1.4-17.3,4.7-19.7
	c6.6-4.8,86-79.6,95.1-88.1l0.1-0.1C746.7,355.4,747.8,349.5,745.4,343.7z"/>
</svg>
